<svg xmlns="http://www.w3.org/2000/svg" xmlns:xlink="http://www.w3.org/1999/xlink" id="Layer_1" width="100%" x="0" y="0" enable-background="new 0 0 150 150" version="1.1" viewBox="0 0 150 150" xml:space="preserve"><path fill="#000" stroke="none" d="M98.000000,151.000000 C65.333336,151.000000 33.166668,151.000000 1.000000,151.000000 C1.000000,101.000000 1.000000,51.000000 1.000000,1.000000 C51.000000,1.000000 101.000000,1.000000 151.000000,1.000000 C151.000000,51.000000 151.000000,101.000000 151.000000,151.000000 C133.500000,151.000000 116.000000,151.000000 98.000000,151.000000 M32.497841,111.005859 C35.997036,110.997818 39.497868,111.056168 42.995148,110.970222 C58.152657,110.597717 70.096619,104.468483 77.375694,90.849686 C88.445992,70.137703 80.386436,42.598885 53.268276,39.929176 C49.301266,39.538631 45.318775,39.055138 41.343136,39.052311 C31.713297,39.045460 22.081488,39.238316 12.455998,39.531883 C11.458611,39.562302 10.498367,40.810558 9.520889,41.493748 C10.411214,42.561935 11.147370,44.338871 12.219330,44.572044 C16.236431,45.445850 17.018250,48.046169 17.005674,51.574883 C16.948666,67.570923 17.047773,83.567970 16.888010,99.562630 C16.868147,101.551315 15.966034,103.726830 14.903331,105.468323 C12.755909,108.987389 13.314398,110.647675 17.506857,110.877434 C22.159481,111.132408 26.834251,110.983315 32.497841,111.005859 M86.644249,42.296238 C87.753036,43.180359 88.988174,43.947437 89.941002,44.976036 C91.370880,46.519611 93.719154,48.228325 93.746506,49.898438 C94.026802,67.012993 93.951080,84.134148 93.851555,101.252739 C93.843521,102.633842 92.954163,104.021568 92.418915,105.384445 C91.912949,106.672737 91.333923,107.932335 90.787033,109.204552 C92.254356,109.791512 93.712067,110.855598 95.190605,110.885361 C102.852219,111.039574 110.556747,111.395622 118.173714,110.781265 C125.868187,110.160645 132.739807,106.763382 137.615463,100.648125 C144.588852,91.901802 144.963715,76.556900 131.566055,71.361908 C130.753479,71.046829 130.078171,70.377739 129.206223,69.782784 C131.555450,67.570732 133.695190,65.735970 135.627029,63.703587 C141.759018,57.252426 139.733978,41.739449 127.735863,40.286102 C122.147453,39.609165 116.489166,39.341709 110.856316,39.242565 C104.225464,39.125851 97.582077,39.271564 90.957626,39.587074 C89.480774,39.657421 88.060211,40.909611 86.644249,42.296238 z" opacity="1"/><path fill="#171C28" stroke="none" d="M31.998610,111.008011 C26.834251,110.983315 22.159481,111.132408 17.506857,110.877434 C13.314398,110.647675 12.755909,108.987389 14.903331,105.468323 C15.966034,103.726830 16.868147,101.551315 16.888010,99.562630 C17.047773,83.567970 16.948666,67.570923 17.005674,51.574883 C17.018250,48.046169 16.236431,45.445850 12.219330,44.572044 C11.147370,44.338871 10.411214,42.561935 9.520889,41.493748 C10.498367,40.810558 11.458611,39.562302 12.455998,39.531883 C22.081488,39.238316 31.713297,39.045460 41.343136,39.052311 C45.318775,39.055138 49.301266,39.538631 53.268276,39.929176 C80.386436,42.598885 88.445992,70.137703 77.375694,90.849686 C70.096619,104.468483 58.152657,110.597717 42.995148,110.970222 C39.497868,111.056168 35.997036,110.997818 31.998610,111.008011 M39.497982,46.000256 C37.998165,46.006817 36.490101,46.117882 35.000080,46.000305 C30.562077,45.650108 28.267767,47.959026 28.232388,52.089066 C28.101093,67.415993 28.034103,82.748596 28.396461,98.068344 C28.443308,100.048927 30.833651,103.247025 32.669922,103.693062 C40.827568,105.674545 49.016972,104.494141 56.361427,100.567642 C67.106972,94.822853 69.838036,84.333923 69.809547,73.339561 C69.781471,62.508812 66.368057,52.622963 55.114197,48.340218 C50.587791,46.617649 45.364666,46.725872 39.497982,46.000256 z" opacity="1"/><path fill="#171C28" stroke="none" d="M86.628990,41.956955 C88.060211,40.909611 89.480774,39.657421 90.957626,39.587074 C97.582077,39.271564 104.225464,39.125851 110.856316,39.242565 C116.489166,39.341709 122.147453,39.609165 127.735863,40.286102 C139.733978,41.739449 141.759018,57.252426 135.627029,63.703587 C133.695190,65.735970 131.555450,67.570732 129.206223,69.782784 C130.078171,70.377739 130.753479,71.046829 131.566055,71.361908 C144.963715,76.556900 144.588852,91.901802 137.615463,100.648125 C132.739807,106.763382 125.868187,110.160645 118.173714,110.781265 C110.556747,111.395622 102.852219,111.039574 95.190605,110.885361 C93.712067,110.855598 92.254356,109.791512 90.787033,109.204552 C91.333923,107.932335 91.912949,106.672737 92.418915,105.384445 C92.954163,104.021568 93.843521,102.633842 93.851555,101.252739 C93.951080,84.134148 94.026802,67.012993 93.746506,49.898438 C93.719154,48.228325 91.370880,46.519611 89.941002,44.976036 C88.988174,43.947437 87.753036,43.180359 86.628990,41.956955 M105.005386,88.379631 C105.372513,92.334885 105.446907,96.350769 106.247467,100.216255 C106.578621,101.815170 108.188995,103.804070 109.694336,104.389297 C115.593254,106.682632 125.661942,102.035515 128.253998,96.204018 C133.400879,84.624771 127.608978,75.727905 113.908051,74.167397 C106.414986,73.313950 105.062363,74.492355 105.004517,81.942848 C104.990356,83.766838 105.001923,85.591034 105.005386,88.379631 M125.602577,61.834309 C127.760788,57.242306 127.769730,52.810989 124.164917,48.945023 C121.317146,45.890942 112.911568,44.218155 109.245575,45.970406 C108.049820,46.541950 106.528755,47.823219 106.375870,48.945950 C105.708282,53.848312 105.297173,58.809475 105.238770,63.754551 C105.223694,65.030869 106.538223,66.939781 107.738312,67.505852 C112.708755,69.850372 121.487785,67.145790 125.602577,61.834309 z" opacity="1"/><path fill="#000" stroke="none" d="M39.978310,46.000553 C45.364666,46.725872 50.587791,46.617649 55.114197,48.340218 C66.368057,52.622963 69.781471,62.508812 69.809547,73.339561 C69.838036,84.333923 67.106972,94.822853 56.361427,100.567642 C49.016972,104.494141 40.827568,105.674545 32.669922,103.693062 C30.833651,103.247025 28.443308,100.048927 28.396461,98.068344 C28.034103,82.748596 28.101093,67.415993 28.232388,52.089066 C28.267767,47.959026 30.562077,45.650108 35.000080,46.000305 C36.490101,46.117882 37.998165,46.006817 39.978310,46.000553 z" opacity="1"/><path fill="#000" stroke="none" d="M105.003525,87.897385 C105.001923,85.591034 104.990356,83.766838 105.004517,81.942848 C105.062363,74.492355 106.414986,73.313950 113.908051,74.167397 C127.608978,75.727905 133.400879,84.624771 128.253998,96.204018 C125.661942,102.035515 115.593254,106.682632 109.694336,104.389297 C108.188995,103.804070 106.578621,101.815170 106.247467,100.216255 C105.446907,96.350769 105.372513,92.334885 105.003525,87.897385 z" opacity="1"/><path fill="#000" stroke="none" d="M125.389847,62.156750 C121.487785,67.145790 112.708755,69.850372 107.738312,67.505852 C106.538223,66.939781 105.223694,65.030869 105.238770,63.754551 C105.297173,58.809475 105.708282,53.848312 106.375870,48.945950 C106.528755,47.823219 108.049820,46.541950 109.245575,45.970406 C112.911568,44.218155 121.317146,45.890942 124.164917,48.945023 C127.769730,52.810989 127.760788,57.242306 125.389847,62.156750 z" opacity="1"/></svg>